<svg aria-hidden="true" style="position: absolute; width: 0; height: 0; overflow: hidden;" version="1.1" xmlns="http://www.w3.org/2000/svg" xmlns:xlink="http://www.w3.org/1999/xlink">
<defs>
<symbol id="icon-sign-wh" viewBox="0 0 32 32">
<path fill="none" stroke="#fffef0" style="stroke: var(--color1, #fffef0)" stroke-linejoin="miter" stroke-linecap="square" stroke-miterlimit="4" stroke-width="2.6667" d="M5.333 16h21.333"></path>
<path fill="none" stroke="#fffef0" style="stroke: var(--color1, #fffef0)" stroke-linejoin="miter" stroke-linecap="square" stroke-miterlimit="4" stroke-width="2.6667" d="M26.667 16c-5.891 0-10.667-4.776-10.667-10.667"></path>
<path fill="none" stroke="#fffef0" style="stroke: var(--color1, #fffef0)" stroke-linejoin="miter" stroke-linecap="square" stroke-miterlimit="4" stroke-width="2.6667" d="M26.667 16c-5.891 0-10.667 4.776-10.667 10.667"></path>
</symbol>
<symbol id="icon-sign-bl" viewBox="0 0 32 32">
<path fill="none" stroke="#004449" style="stroke: var(--color2, #004449)" stroke-linejoin="miter" stroke-linecap="square" stroke-miterlimit="4" stroke-width="2.6667" d="M5.333 16h21.333"></path>
<path fill="none" stroke="#004449" style="stroke: var(--color2, #004449)" stroke-linejoin="miter" stroke-linecap="square" stroke-miterlimit="4" stroke-width="2.6667" d="M26.667 16c-5.891 0-10.667-4.776-10.667-10.667"></path>
<path fill="none" stroke="#004449" style="stroke: var(--color2, #004449)" stroke-linejoin="miter" stroke-linecap="square" stroke-miterlimit="4" stroke-width="2.6667" d="M26.667 16c-5.891 0-10.667 4.776-10.667 10.667"></path>
</symbol>
<symbol id="icon-company1" viewBox="0 0 45 32">
<path fill="#fffef0" style="fill: var(--color1, #fffef0)" d="M4.455 8.237h2.277v4.144l2.518-4.144h2.304l-2.602 3.651 2.823 6.28h-2.356l-1.824-4.573-0.862 1.197v3.377h-2.277v-9.932z"></path>
<path fill="#fffef0" style="fill: var(--color1, #fffef0)" d="M12.531 8.237h6.31v1.703h-4.029v2.307h3.132v1.704h-3.132v2.445h4.029v1.773h-6.31v-9.932z"></path>
<path fill="#fffef0" style="fill: var(--color1, #fffef0)" d="M19.851 8.237h2.253v8.069h3.299v1.863h-5.553v-9.932z"></path>
<path fill="#fffef0" style="fill: var(--color1, #fffef0)" d="M26.665 8.237h2.251v8.069h3.301v1.863h-5.553v-9.932z"></path>
<path fill="#fffef0" style="fill: var(--color1, #fffef0)" d="M30.703 8.237h2.531l1.475 3.62 1.578-3.62h2.241l-2.903 5.734v4.198h-2.296v-4.198l-2.625-5.734z"></path>
<path fill="#fffef0" style="fill: var(--color1, #fffef0)" d="M4.455 6.783v-4.845h1.016v4.053h2.265v0.792h-3.281z"></path>
<path fill="#fffef0" style="fill: var(--color1, #fffef0)" d="M8.241 6.783v-4.845h0.757v4.845h-0.757z"></path>
<path fill="#fffef0" style="fill: var(--color1, #fffef0)" d="M11.977 6.783h-0.919l-1.555-4.845h0.957l1.152 3.715 1.176-3.715h0.754l-1.564 4.845z"></path>
<path fill="#fffef0" style="fill: var(--color1, #fffef0)" d="M14.046 6.783v-4.845h3.251v0.717h-2.342v1.317h1.88v0.705h-1.88v1.358h2.372v0.748h-3.281z"></path>
<path fill="#fffef0" style="fill: var(--color1, #fffef0)" d="M8.746 27.332l-1.023 0.281v1.359l1.023 0.284v0.541l-4.291-1.172v-0.789l4.291-1.189v0.684zM5.189 28.298l1.916 0.515v-1.030l-1.916 0.515z"></path>
<path fill="#fffef0" style="fill: var(--color1, #fffef0)" d="M8.746 24.081l-2.74 1.377-0.084 0.037c-0.038 0.018-0.088 0.037-0.148 0.058l-0.1 0.040c-0.041 0.016-0.085 0.035-0.132 0.056h3.203v0.514h-4.291v-0.705l2.528-1.235c0.043-0.021 0.122-0.057 0.238-0.106 0.030-0.011 0.069-0.026 0.115-0.045s0.101-0.043 0.161-0.072h-3.042v-0.503h4.291v0.583z"></path>
<path fill="#fffef0" style="fill: var(--color1, #fffef0)" d="M6.61 19.865c0.299-0.004 0.597 0.039 0.881 0.125 0.247 0.076 0.475 0.195 0.672 0.351 0.186 0.151 0.333 0.338 0.431 0.549 0.103 0.227 0.155 0.472 0.151 0.718v1.163h-4.29v-1.306c-0.003-0.225 0.051-0.447 0.158-0.649 0.106-0.196 0.258-0.369 0.443-0.505 0.203-0.148 0.434-0.26 0.681-0.33 0.282-0.080 0.577-0.12 0.872-0.116zM6.605 20.556c-0.21-0.002-0.42 0.021-0.624 0.069-0.172 0.040-0.337 0.106-0.486 0.196-0.128 0.076-0.237 0.178-0.317 0.298-0.076 0.118-0.115 0.254-0.113 0.392v0.607h3.048v-0.532c0.002-0.146-0.036-0.291-0.109-0.421s-0.178-0.241-0.306-0.326c-0.144-0.095-0.305-0.165-0.476-0.208-0.201-0.051-0.41-0.076-0.619-0.074z"></path>
<path fill="#fffef0" style="fill: var(--color1, #fffef0)" d="M10.512 19.622h3.499c0.68 0 1.2 0.028 1.562 0.083 0.397 0.070 0.772 0.224 1.097 0.451 0.379 0.255 0.68 0.602 0.871 1.004 0.215 0.449 0.322 0.937 0.314 1.43 0 1.242-0.522 2.115-1.566 2.62l2.047 4.344h-2.664l-1.489-3.929h-1.224v3.929h-2.447v-9.932zM12.96 21.23v2.787h1.077c0.957 0 1.435-0.478 1.435-1.434 0-0.33-0.071-0.6-0.212-0.812-0.114-0.188-0.287-0.338-0.493-0.43-0.188-0.075-0.465-0.113-0.83-0.113l-0.977 0.001z"></path>
<path fill="#fffef0" style="fill: var(--color1, #fffef0)" d="M17.579 19.622h2.69l1.57 3.62 1.681-3.62h2.388l-3.089 5.734v4.198h-2.443v-4.198l-2.796-5.734z"></path>
<path fill="#fffef0" style="fill: var(--color1, #fffef0)" d="M27.172 19.622h2.421l3.129 9.932h-2.462l-0.544-2.052h-3.084l-0.537 2.052h-2.207l3.284-9.932zM29.263 25.8l-1.106-4.071-1.061 4.071h2.167z"></path>
<path fill="#fffef0" style="fill: var(--color1, #fffef0)" d="M33.732 19.622h2.661l2.805 6.173v-6.173h1.853v9.932h-2.143l-3.324-7.192v7.192h-1.852v-9.932z"></path>
</symbol>
<symbol id="icon-company2" viewBox="0 0 43 32">
<path fill="#fffef0" style="fill: var(--color1, #fffef0)" d="M15.723 6.404v-3.088l-1.042 0.406c0 0-0.255 0.518-0.208 1.285 0.023 0.609 0.394 1.307 0.671 1.623l0.579-0.225zM18.525 0.047c0.232 0.023 0.625 0.135 0.903 0.361 0.301 0.271 0.37 0.699 0.278 1.082-0.093 0.338-0.208 0.518-0.579 0.766s-0.648 0.271-0.648 0.271v1.488l0.718 0.541-0.718 0.631v2.029c0 0 0.602-0.473 1.065-1.398 0 0 0.023-0.045 0.069-0.158 0.046 0.248 0.023 0.766-0.278 1.398-0.232 0.496-0.625 0.947-1.158 1.217-0.903 0.473-1.597 0.519-2.315 0.383-0.857-0.158-1.644-0.609-2.153-1.398-0.37-0.564-0.533-1.195-0.533-1.894 0.023-1.375 1.111-2.547 2.361-2.998 0.162-0.045 0.208-0.090 0.417-0.113-0.093 0.068-0.208 0.135-0.347 0.225-0.394 0.248-0.741 0.744-0.903 1.127l2.408-1.014v3.178l-1.922 0.924c0.232 0.293 0.903 0.721 1.482 0.789 0.972 0.113 1.621-0.248 1.621-0.248v-2.074l-0.718-0.609 0.718-0.541v-1.488c-0.417-0.045-0.995-0.225-1.273-0.293-0.44-0.090-1.875-0.473-2.107-0.518-0.232-0.023-0.509-0.023-0.671 0.113s-0.278 0.406-0.208 0.631c0.046 0.135 0.139 0.203 0.208 0.271 0 0-0.093 0-0.231-0.090-0.278-0.158-0.486-0.451-0.509-0.834-0.014-0.236 0.035-0.471 0.14-0.684s0.264-0.396 0.462-0.533c0.37-0.225 0.787-0.361 1.273-0.293 0.718 0.090 1.667 0.473 2.524 0.676 0.324 0.068 0.579 0.090 0.81-0.023 0.116-0.068 0.301-0.27 0.139-0.518-0.185-0.293-0.533-0.293-0.834-0.338 0.278-0.045 0.324-0.045 0.509-0.045z"></path>
<path fill="#fffef0" style="fill: var(--color1, #fffef0)" d="M27.947 5.593l-1.111 0.766v-2.525l1.111 1.758zM27.901 3.158l-1.227 0.699-1.158 0.586v2.931l-0.44 0.338 0.069 0.068 0.44-0.338 1.366 1.15 2.361-1.758-0.046-0.068-1.32 0.969-1.111-0.924v-0.361l2.153-1.488-1.088-1.803z"></path>
<path fill="#fffef0" style="fill: var(--color1, #fffef0)" d="M21.696 9.74c0.301 0.068 0.857 0.113 1.528-0.203 0.741-0.338 1.019-1.082 1.019-1.826l0.023-1.060v-2.344l0.463-0.338-0.046-0.068-0.463 0.338-0.995-1.127-1.528 1.105v-3.742l-1.551 1.24c0.069 0.045 0.417 0.090 0.417 0.406v5.252l-0.81 0.496 0.046 0.068 0.347-0.248 0.972 0.857 1.528-1.15-0.046-0.068-0.37 0.271-0.509-0.338v-2.931l0.602-0.361 0.833 0.834v2.525c0 0.676-0.185 1.465-0.556 1.871s-0.509 0.428-0.903 0.541z"></path>
<path fill="#fffef0" style="fill: var(--color1, #fffef0)" d="M28.712 28.288l-1.227 0.766v-2.525l1.227 1.758zM28.688 25.853l-1.25 0.699-1.134 0.586v2.93l-0.486 0.338 0.069 0.068 0.44-0.338 1.366 1.15 2.361-1.758-0.046-0.068-1.32 0.969-1.088-0.947v-0.361l2.153-1.488-1.065-1.781z"></path>
<path fill="#fffef0" style="fill: var(--color1, #fffef0)" d="M24.76 31.285l1.436-1.239-0.069-0.067-0.346 0.293-0.602-0.541v-2.75l0.578-0.384-0.046-0.067-0.532 0.384-0.972-1.037-1.389 1.037-0.996-0.991-1.342 0.991-0.996-0.991-1.436 1.18 0.046 0.067 0.463-0.361 0.649 0.7v2.435l-0.324 0.27 1.042 1.096 1.065-0.992-0.44-0.428v-2.931l0.255-0.202 0.671 0.812v2.411l-0.208 0.27 0.972 1.014 1.042-0.97-0.416-0.384v-2.931l0.301-0.225 0.866 0.789v2.411l-0.346 0.225 1.074 1.105zM16.148 30.204l-0.416 0.337 0.046 0.067 0.44-0.361 0.949 1.037 1.366-1.15-0.046-0.067-0.416 0.337-0.556-0.609v-2.726l0.485-0.384-0.069-0.067-0.463 0.384-0.996-1.096-1.472 1.127 0.185 0.045 0.371-0.293 0.602 0.653-0.011 2.765zM17.366 24.703l-1.042 0.879-0.834-0.857 1.044-0.902 0.831 0.879z"></path>
<path fill="#fffef0" style="fill: var(--color1, #fffef0)" d="M10.861 29.099v-3.088l-0.972 0.406c0 0-0.255 0.518-0.208 1.285 0.023 0.609 0.394 1.307 0.671 1.623l0.509-0.225zM13.64 22.742c0.255 0.023 0.625 0.135 0.903 0.361 0.301 0.27 0.37 0.699 0.278 1.082-0.093 0.338-0.208 0.518-0.579 0.766s-0.648 0.225-0.648 0.225v1.488l0.695 0.586-0.695 0.586v2.006c0 0 0.579-0.406 1.065-1.33 0 0 0.023-0.045 0.069-0.158 0.046 0.248 0.023 0.766-0.278 1.398-0.232 0.496-0.625 0.947-1.158 1.217-0.903 0.473-1.597 0.518-2.315 0.383-0.857-0.158-1.644-0.609-2.153-1.398-0.37-0.564-0.533-1.195-0.533-1.893 0.023-1.375 1.111-2.547 2.361-2.998 0.139-0.045 0.208-0.090 0.417-0.113-0.093 0.068-0.208 0.135-0.347 0.225-0.394 0.248-0.741 0.744-0.903 1.127l2.385-0.969v3.178l-1.899 0.879c0.232 0.293 0.903 0.721 1.482 0.789 0.972 0.113 1.597-0.293 1.597-0.293v-2.074l-0.695-0.586 0.695-0.586v-1.488c-0.417-0.045-0.949-0.18-1.25-0.248-0.44-0.090-1.875-0.473-2.107-0.519-0.231-0.023-0.509-0.023-0.671 0.113s-0.278 0.406-0.208 0.631c0.046 0.135 0.139 0.203 0.208 0.271 0 0-0.093 0-0.231-0.090-0.278-0.158-0.486-0.451-0.509-0.834-0.013-0.236 0.035-0.471 0.14-0.684s0.264-0.396 0.462-0.533c0.37-0.225 0.787-0.361 1.273-0.293 0.718 0.090 1.667 0.473 2.524 0.676 0.324 0.068 0.579 0.090 0.81-0.023 0.116-0.068 0.301-0.271 0.139-0.518-0.185-0.293-0.533-0.293-0.834-0.338 0.255-0.023 0.324-0.023 0.509-0.023z"></path>
<path fill="#fffef0" style="fill: var(--color1, #fffef0)" d="M31.652 26.439v1.465l0.648 0.428c0 0 1.111-0.857 1.528-1.623 0 0-0.509 0.654-1.181 0.451-0.579-0.158-0.857-0.699-0.857-0.699zM30.517 30.294c0 0 0.486-0.766 1.343-0.609 0.81 0.158 1.181 0.969 1.181 0.969v-1.849l-0.671-0.451c-0.602 0.586-1.713 1.42-1.852 1.939zM31.328 31.692c-0.162 0.045-0.833-0.113-0.996-0.789-0.162-0.654 0.324-1.082 1.042-1.781l-0.857-0.744v-1.398c0 0 0.625-0.293 1.111-0.586l0.996-0.609c0 0 0.37 0.428 0.787 0.406 0.648-0.045 0.625-0.541 0.602-0.654 0.116 0.18 0.417 0.744-0.741 1.984l0.926 0.699v1.826c0 0-1.065 0.518-2.107 1.24 0 0-0.579-0.676-1.065-0.361-0.324 0.248-0.162 0.609 0.301 0.766z"></path>
<path fill="#fffef0" style="fill: var(--color1, #fffef0)" d="M2.049 19.798c-0.602-0.068-0.857-0.406-0.857-0.699 0-0.18 0.185-0.519 0.556-0.564s0.741 0.113 1.065 0.473l1.412-1.465-0.069-0.068-0.37 0.406c-0.394-0.406-0.857-0.676-1.412-0.744v-4.486l3.588 6.289c0 0 0.093 0.068 0.255 0.068 0.139 0 0.093-0.090 0.093-0.090v-6.334c0.301 0 0.695-0.158 0.926-0.383 0.695-0.676 0.417-1.42 0.347-1.51-0.046 0.316-0.301 0.654-0.741 0.654-0.579 0-0.926-0.406-0.926-0.406l-1.459 1.533 0.069 0.068 0.394-0.428c0.486 0.428 0.764 0.473 1.134 0.496v3.674l-2.616-4.666c-0.255-0.383-0.625-0.721-1.204-0.721-0.671 0-1.158 0.564-1.227 1.037-0.069 0.541 0 0.676 0 0.676s0.093-0.609 0.486-0.609c0.347 0 0.463 0.18 0.625 0.406v1.488c-0.37 0.023-1.25 0.068-1.32 1.014 0 0.361 0.232 0.721 0.44 0.834 0.255 0.158 0.463 0.158 0.463 0.158s-0.301-0.158-0.208-0.473c0.093-0.271 0.625-0.316 0.648-0.203v1.894c-0.301 0-1.158 0.023-1.597 0.789-0.255 0.451-0.232 0.969 0.023 1.33 0.232 0.316 0.695 0.699 1.482 0.564z"></path>
<path fill="#fffef0" style="fill: var(--color1, #fffef0)" d="M9.828 15.921l-1.204 0.766v-2.525l1.204 1.758zM9.782 13.486l-1.25 0.699-1.088 0.586v2.931l-0.44 0.338 0.069 0.068 0.44-0.338 1.273 1.15 2.361-1.758-0.046-0.068-1.32 0.969-1.065-0.947v-0.361l2.153-1.488-1.088-1.781z"></path>
<path fill="#fffef0" style="fill: var(--color1, #fffef0)" d="M13.116 18.987l-1.158-0.902-0.509 0.338-0.046-0.068 0.509-0.361v-2.547c0.023-1.037-1.019-0.789-0.949-1.894 0.023-0.496 0.533-0.857 0.787-0.969 0.278-0.135 0.556-0.135 0.556-0.135s-0.486 0.27-0.37 0.676c0.185 0.631 1.297 0.676 1.32 1.51v2.885l0.718 0.631 0.208-0.158v-3.133l-0.324-0.428 1.158-0.969 1.065 0.879-0.486 0.406v2.773l1.065 0.766 0.185-0.113v-3.314l-0.44-0.406 1.158-0.992 1.088 0.834 0.44-0.361 0.046 0.068-0.972 0.812v2.705l-2.477 1.443-1.273-0.924-1.296 0.947z"></path>
<path fill="#fffef0" style="fill: var(--color1, #fffef0)" d="M29.23 17.251l1.204 1.014v-3.111l-1.204-1.037v3.133zM31.799 14.704l0.417-0.361 0.069 0.068-0.509 0.361v2.908l-1.204 0.676-1.111 0.631-1.412-1.127-0.37 0.316-0.070-0.068 0.486-0.316v-3.156h-0.069l1.227-0.586 1.065-0.586 1.482 1.24z"></path>
<path fill="#fffef0" style="fill: var(--color1, #fffef0)" d="M34.601 14.411l0.903-0.879c0 0 0.116 0.113 0.231 0.158 0.069 0.023 0.347 0.158 0.579 0.023 0.139-0.068 0.162-0.090 0.301-0.225 0.023 0.676-0.324 1.15-0.741 1.353-0.185 0.090-0.787 0.225-1.343-0.383v3.133l0.671 0.473 0.486-0.361 0.046 0.068-1.482 1.172-1.135-0.969-0.417 0.361-0.069-0.068 0.509-0.518v-2.683l-0.37-0.586-0.417 0.338-0.069-0.068 1.435-1.217 0.88 0.879z"></path>
<path fill="#fffef0" style="fill: var(--color1, #fffef0)" d="M38.398 15.718l1.667-2.277c0 0 0.231 0.248 0.602 0.338 0.509 0.135 0.972-0.338 0.972-0.338-0.093 0.609-0.417 1.307-1.088 1.42-0.602 0.090-1.158-0.338-1.158-0.338l-0.116 0.158 2.315 3.291 0.463-0.383 0.069 0.068-1.597 1.308-2.13-3.246z"></path>
<path fill="#fffef0" style="fill: var(--color1, #fffef0)" d="M37.101 12.652c0-0.496-0.301-0.789-0.579-0.766l1.736-1.195v6.808l0.556 0.473 0.37-0.293 0.069 0.068-1.459 1.195-0.995-0.879-0.394 0.338-0.069-0.068 0.787-0.564v-5.117h-0.023z"></path>
<path fill="#fffef0" style="fill: var(--color1, #fffef0)" d="M25.34 14.568c0 0-0.208 0.225-0.509 0.225-0.324 0-0.463-0.225-0.463-0.225v0.924c0 0 0.139-0.225 0.463-0.225s0.509 0.203 0.509 0.203v-0.902zM25.294 12.585l-0.579-0.586-0.347 0.248v2.187c0 0 0.208 0.248 0.532 0.248s0.394-0.248 0.394-0.248v-1.849zM24.368 18.761c0 0 0.417 0.113 0.741-0.135 0.347-0.271 0.185-0.631 0.185-0.631v-2.344c0 0-0.093-0.248-0.394-0.248-0.324 0-0.532 0.248-0.532 0.248v3.111zM21.821 12.539c0-0.451-0.208-0.721-0.509-0.721-0.463 0-0.579 0.609-0.579 0.609s-0.093-0.473 0.347-0.902c0.231-0.248 0.671-0.586 1.366-0.428 0.718 0.158 0.996 0.676 0.996 1.15v6.334c0.122 0.029 0.246 0.052 0.37 0.068 0.208 0.045 0.324 0.090 0.324 0.090v-7.619h0.232v1.037l1.412-1.105 1.065 0.902 0.509-0.406 0.046 0.068-0.509 0.428v5.884c-0.023 0.383-0.093 0.766-0.486 0.992-0.857 0.473-1.898-0.068-2.824-0.203-0.695-0.090-1.76-0.225-2.037 0.383-0.093 0.203-0.093 0.496 0.232 0.699 0.625 0.383 3.403-0.654 4.353-0.248 0.857 0.383 0.857 0.992 0.741 1.398-0.232 0.766-1.273 0.924-1.273 0.924s0.509-0.271 0.37-0.744c-0.070-0.225-0.232-0.293-0.787-0.248-1.181 0.135-2.616 0.676-3.565 0.293-0.486-0.203-0.833-0.766-0.81-1.353 0.023-0.812 1.042-1.15 1.042-1.15v-3.043c-0.023-0.113-0.556-0.090-0.695 0.135-0.185 0.338 0.231 0.496 0.231 0.496s-0.324 0.045-0.602-0.248c-0.139-0.135-0.417-0.654-0.046-1.15 0.301-0.406 0.671-0.473 1.134-0.518l-0.046-1.803z"></path>
</symbol>
<symbol id="icon-company3" viewBox="0 0 42 32">
<path fill="#fffef0" style="fill: var(--color1, #fffef0)" d="M20.94 7.573c-3.664 0.002-7.179 1.471-9.788 4.091s-4.1 6.18-4.152 9.911h5.35c0.042-2.293 0.965-4.477 2.571-6.084s3.767-2.508 6.018-2.51c2.252 0.001 4.413 0.902 6.020 2.509s2.53 3.792 2.572 6.084h5.345c-0.052-3.73-1.543-7.29-4.151-9.91s-6.123-4.090-9.786-4.092z"></path>
<path fill="#fffef0" style="fill: var(--color1, #fffef0)" d="M20.939 0.459c-5.516 0.002-10.809 2.221-14.727 6.175s-6.146 9.324-6.198 14.942h5.451c0.052-4.146 1.705-8.104 4.601-11.018s6.802-4.549 10.873-4.551c4.072 0.001 7.979 1.636 10.875 4.55s4.55 6.872 4.602 11.019h5.445c-0.052-5.617-2.279-10.987-6.197-14.941s-9.21-6.174-14.726-6.176z"></path>
<path fill="#fffef0" style="fill: var(--color1, #fffef0)" d="M20.94 14.604c-1.829 0.002-3.585 0.732-4.892 2.035s-2.063 3.074-2.105 4.937h13.996c-0.042-1.863-0.797-3.635-2.105-4.937s-3.064-2.033-4.894-2.034z"></path>
<path fill="#fffef0" style="fill: var(--color1, #fffef0)" d="M0.005 23.457v1.931h2.265v6.312h2.211v-6.312h2.265v-1.931h-6.742z"></path>
<path fill="#fffef0" style="fill: var(--color1, #fffef0)" d="M28.582 23.456l-3.101 8.214h2.439l0.387-1.134h3.217l0.387 1.134h2.439l-3.101-8.214c-0.889 0-1.777 0-2.666 0zM29.915 25.819l0.966 2.832h-1.931l0.966-2.832z"></path>
<path fill="#fffef0" style="fill: var(--color1, #fffef0)" d="M33.45 23.456l3.157 4.938v3.275h2.123v-3.275l3.141-4.938h-2.422l-1.778 2.994-1.778-2.994h-2.444z"></path>
<path fill="#fffef0" style="fill: var(--color1, #fffef0)" d="M17.396 23.476v8.203h3.652c5.383 0.082 6.073-8.114 0-8.203h-3.652zM19.597 25.377h1.589c2.705 0 2.378 4.423 0 4.423h-1.589v-4.423z"></path>
<path fill="#fffef0" style="fill: var(--color1, #fffef0)" d="M11.693 23.344c-2.836 0-4.396 1.894-4.396 4.231s1.732 4.29 4.439 4.29c2.685 0 4.353-1.953 4.353-4.29s-1.668-4.231-4.396-4.231zM11.723 25.273c1.365 0 2.199 1.037 2.199 2.316s-0.834 2.349-2.177 2.349c-1.354 0-2.22-1.069-2.22-2.349s0.78-2.316 2.199-2.316z"></path>
</symbol>
<symbol id="icon-company4" viewBox="0 0 69 32">
<path fill="#fffef0" style="fill: var(--color1, #fffef0)" d="M61.506 27.192l1.127-3.589 1.106 3.589h-2.233zM65.055 31.133h3.052l-4.341-11.19h-2.256l-4.338 11.19h3.022l0.574-1.634 3.727 0 0.561 1.634zM55.034 26.975c-0.62 1.075-1.491 1.61-2.591 1.61-0.795 0-1.489-0.309-2.079-0.92-0.583-0.617-0.874-1.363-0.874-2.237 0-0.822 0.291-1.517 0.871-2.083 0.581-0.57 1.291-0.855 2.123-0.855 1.134 0 2.001 0.564 2.619 1.694h2.992c-0.36-1.371-1.051-2.455-2.077-3.268-1.030-0.812-2.211-1.216-3.547-1.216-1.604 0-2.976 0.557-4.114 1.664-1.136 1.108-1.708 2.456-1.708 4.041 0 1.662 0.549 3.066 1.646 4.216 1.093 1.152 2.471 1.723 4.149 1.723 1.36 0 2.54-0.387 3.54-1.171 1-0.782 1.68-1.849 2.056-3.199h-3.006zM45.653 19.943h-2.752v11.19h2.752v-11.19zM36.036 22.462h0.772c1.217 0 1.828 0.433 1.828 1.295 0 0.491-0.168 0.835-0.505 1.037-0.325 0.206-0.846 0.306-1.549 0.306h-0.546v-2.638zM38.206 31.133h3.42l-2.766-3.849c0.804-0.218 1.429-0.65 1.874-1.287 0.456-0.641 0.678-1.412 0.678-2.312 0-1.383-0.509-2.425-1.521-3.126-0.581-0.407-1.537-0.615-2.858-0.615h-3.739v11.19h2.743l0-3.607 2.169 3.607zM31.533 28.649h-3.379v-1.943h3.379v-2.489h-3.379v-1.789h3.379v-2.486h-6.122v11.19h6.122v-2.484zM14.76 23.73l2.323 7.403h1.948l2.321-7.403v7.403h2.625v-11.19h-3.752l-2.169 6.842-2.153-6.842h-3.768v11.19h2.625v-7.403zM5.075 27.192l1.127-3.589 1.111 3.589h-2.238zM8.624 31.133h3.047l-4.338-11.19h-2.252l-4.342 11.19h3.024l0.567-1.634 3.734 0 0.56 1.634zM46.273 7.169v-4.641h0.802c0.747 0 1.319 0.2 1.706 0.599 0.397 0.402 0.588 0.972 0.588 1.713 0 0.799-0.18 1.386-0.558 1.763-0.371 0.382-0.938 0.566-1.729 0.566h-0.809zM50.198 7.957c0.793-0.773 1.196-1.793 1.196-3.053 0-1.353-0.403-2.408-1.214-3.164-0.41-0.384-0.872-0.653-1.374-0.797-0.443-0.126-1.021-0.184-1.729-0.184h-2.826v8.217h3.107c0.631 0 1.138-0.060 1.528-0.184 0.452-0.147 0.89-0.425 1.312-0.835zM39.512 2.638c0.583 0 1.083 0.21 1.498 0.63 0.426 0.42 0.634 0.933 0.634 1.536 0 0.662-0.205 1.211-0.627 1.646-0.413 0.43-0.922 0.646-1.524 0.646-0.59 0-1.099-0.22-1.535-0.666-0.438-0.444-0.655-0.984-0.655-1.626-0-0.603 0.214-1.116 0.645-1.536 0.424-0.42 0.945-0.63 1.563-0.63zM39.494 9.123c1.199 0 2.215-0.427 3.049-1.284 0.798-0.823 1.203-1.829 1.203-3.023 0-1.163-0.431-2.162-1.281-2.995-0.834-0.806-1.821-1.211-2.962-1.211-1.185 0-2.199 0.404-3.029 1.211-0.832 0.81-1.244 1.793-1.244 2.954-0 1.229 0.401 2.258 1.201 3.093 0.809 0.837 1.823 1.254 3.063 1.254zM30.59 2.638c0.586 0 1.081 0.21 1.505 0.63 0.415 0.42 0.625 0.933 0.625 1.536 0 0.662-0.21 1.211-0.622 1.646-0.415 0.43-0.922 0.646-1.53 0.646-0.586 0-1.097-0.22-1.53-0.666-0.431-0.444-0.652-0.984-0.652-1.626-0-0.603 0.214-1.116 0.643-1.536s0.945-0.63 1.563-0.63zM30.569 9.123c1.196 0 2.222-0.427 3.052-1.284 0.8-0.823 1.201-1.829 1.201-3.023 0-1.163-0.429-2.162-1.286-2.995-0.828-0.806-1.807-1.211-2.952-1.211-1.192 0-2.199 0.404-3.026 1.211-0.83 0.81-1.247 1.793-1.247 2.954 0 1.229 0.399 2.258 1.205 3.093 0.802 0.837 1.821 1.254 3.054 1.254zM21.792 5.99h1.763c-0.415 0.751-1.040 1.126-1.865 1.126-0.578 0-1.083-0.228-1.514-0.681-0.433-0.455-0.645-0.999-0.645-1.643 0-0.595 0.205-1.108 0.627-1.533 0.417-0.427 0.929-0.64 1.537-0.64 0.622 0 1.187 0.271 1.699 0.81h2.303c-0.327-0.873-0.853-1.561-1.572-2.071-0.703-0.511-1.51-0.764-2.404-0.764-1.18 0-2.187 0.404-3.017 1.219-0.835 0.815-1.256 1.803-1.256 2.964 0 1.224 0.408 2.253 1.21 3.101 0.797 0.842 1.814 1.264 3.038 1.264 0.715 0 1.367-0.161 1.994-0.493 0.629-0.324 1.136-0.773 1.53-1.345 0.47-0.688 0.708-1.492 0.708-2.407 0-0.119-0.002-0.299-0.025-0.544l-4.11 0v1.639zM56.041 15.591h1.761c-0.42 0.751-1.037 1.128-1.86 1.128-0.583 0-1.086-0.23-1.519-0.681-0.433-0.453-0.645-1.001-0.645-1.643 0-0.599 0.207-1.108 0.625-1.531 0.42-0.429 0.933-0.642 1.54-0.642 0.62 0 1.187 0.271 1.699 0.81h2.307c-0.337-0.876-0.86-1.563-1.57-2.071-0.715-0.512-1.517-0.765-2.411-0.765-1.182 0-2.183 0.406-3.022 1.22-0.828 0.813-1.245 1.803-1.245 2.966 0 1.221 0.396 2.251 1.196 3.096 0.809 0.844 1.819 1.269 3.045 1.269 0.712 0 1.374-0.169 1.999-0.493 0.618-0.326 1.129-0.779 1.523-1.35 0.477-0.688 0.712-1.487 0.712-2.406 0-0.116-0.009-0.298-0.025-0.543l-4.11 0v1.636zM46.362 14.004l3.081 4.573h1.777v-8.22h-2.019v4.568l-3.033-4.568h-1.83v8.22h2.024v-4.573zM43.472 10.357h-2.019v8.22h2.019v-8.22zM38.826 18.577h1.779v-8.22h-2.021v4.568l-3.040-4.568h-1.823v8.22h2.019l0-4.573 3.087 4.573zM28.926 12.204h0.56c0.89 0 1.33 0.319 1.33 0.959 0 0.364-0.122 0.617-0.355 0.769-0.247 0.149-0.622 0.222-1.136 0.222h-0.399v-1.95zM30.512 18.577h2.496l-2.021-2.817c0.592-0.162 1.049-0.478 1.376-0.946 0.332-0.473 0.493-1.039 0.493-1.702 0-1.017-0.366-1.785-1.113-2.3-0.426-0.303-1.125-0.455-2.097-0.455h-2.743v8.22h2.024v-2.646l1.586 2.646zM22.147 12.242c0.585 0 1.083 0.208 1.505 0.628 0.417 0.422 0.629 0.935 0.629 1.535 0 0.666-0.21 1.214-0.627 1.647-0.413 0.43-0.922 0.648-1.537 0.648-0.576 0-1.090-0.223-1.521-0.666-0.438-0.446-0.657-0.986-0.657-1.629-0-0.599 0.217-1.113 0.648-1.535 0.424-0.42 0.945-0.628 1.56-0.628zM22.129 18.726c1.199 0 2.215-0.427 3.047-1.282 0.8-0.823 1.199-1.834 1.199-3.028 0-1.166-0.429-2.162-1.277-2.992-0.832-0.806-1.821-1.214-2.962-1.214-1.187 0-2.197 0.408-3.024 1.214-0.83 0.81-1.247 1.793-1.247 2.957 0 1.227 0.401 2.253 1.206 3.088 0.802 0.839 1.823 1.257 3.058 1.257zM12.307 18.577h1.429l1.701-5.433v5.433h1.932v-8.22h-2.757l-1.593 5.031-1.581-5.031h-2.771v8.22h1.932l-0-5.433 1.708 5.433z"></path>
</symbol>
<symbol id="icon-company5" viewBox="0 0 31 32">
<path fill="#fffef0" style="fill: var(--color1, #fffef0)" d="M30.815 0.49h-30.753v31.344h30.753v-31.344z"></path>
<path fill="#004449" style="fill: var(--color2, #004449)" d="M8.249 12.585c0-0.548-0.383-0.992-1.086-0.992h-1.67v1.983h1.67c0.677 0 1.086-0.365 1.086-0.992zM8.083 9.049c0-0.535-0.383-0.913-0.997-0.913h-1.593v1.827h1.593c0.613 0 0.997-0.352 0.997-0.913zM3.679 15.208v-8.703h3.804c1.623 0 2.454 1.057 2.454 2.218 0 1.083-0.665 1.827-1.47 1.996 0.92 0.144 1.636 1.044 1.636 2.127 0 1.318-0.843 2.362-2.479 2.362h-3.945z"></path>
<path fill="#004449" style="fill: var(--color2, #004449)" d="M16.793 15.208v-1.239l2.786-3.614h-2.786v-1.448h4.997v1.187l-2.837 3.666h2.888v1.448h-5.048z"></path>
<path fill="#004449" style="fill: var(--color2, #004449)" d="M22.256 15.208v-1.239l2.786-3.614h-2.786v-1.448h4.996v1.187l-2.837 3.666h2.888v1.448h-5.047z"></path>
<path fill="#004449" style="fill: var(--color2, #004449)" d="M10.426 12.688v-3.782h1.633v3.725c0 0.752 0.448 1.295 1.316 1.295 0.858 0 1.306-0.543 1.306-1.295v-3.725h1.624v3.773c0 1.581-0.933 2.696-2.929 2.696s-2.949-1.124-2.949-2.687z"></path>
<path fill="#004449" style="fill: var(--color2, #004449)" d="M3.648 26.203v-8.651h5.88v1.621h-4.077v1.816h3.068v1.621h-3.068v3.593h-1.804z"></path>
<path fill="#004449" style="fill: var(--color2, #004449)" d="M11.805 21.132c-1.003 0-1.435 0.713-1.499 1.336h3.023c-0.051-0.597-0.457-1.336-1.524-1.336zM8.63 23.064c0-1.816 1.321-3.281 3.176-3.281 1.842 0 3.074 1.401 3.074 3.437v0.389h-4.56c0.114 0.765 0.724 1.401 1.766 1.401 0.521 0 1.232-0.221 1.626-0.609l0.724 1.089c-0.61 0.571-1.575 0.869-2.528 0.869-1.867 0-3.277-1.284-3.277-3.294z"></path>
<path fill="#004449" style="fill: var(--color2, #004449)" d="M18.327 21.132c-1.003 0-1.435 0.713-1.499 1.336h3.023c-0.051-0.597-0.457-1.336-1.524-1.336zM15.152 23.064c0-1.816 1.321-3.281 3.176-3.281 1.842 0 3.074 1.401 3.074 3.437v0.389h-4.56c0.114 0.765 0.724 1.401 1.766 1.401 0.521 0 1.232-0.221 1.626-0.609l0.724 1.089c-0.61 0.571-1.575 0.869-2.528 0.869-1.867 0-3.277-1.284-3.277-3.294z"></path>
<path fill="#004449" style="fill: var(--color2, #004449)" d="M26.104 23.065c0-0.972-0.573-1.783-1.7-1.783h-1.007v3.575h0.998c1.081 0 1.709-0.858 1.709-1.792zM21.864 26.215v-6.291h2.476c1.94 0 3.334 1.189 3.334 3.141s-1.394 3.15-3.325 3.15h-2.485z"></path>
</symbol>
<symbol id="icon-facebook" viewBox="0 0 32 32">
<path fill="#fffef0" style="fill: var(--color1, #fffef0)" d="M21.272 17.932l0.574-4.554h-4.409v-2.901c0-1.319 0.361-2.217 2.207-2.217h2.355v-4.081c-1.141-0.123-2.287-0.183-3.434-0.179-3.398 0-5.722 2.123-5.722 6.021v3.357h-3.844v4.554h3.844v10.068h4.593v-10.068h3.834z"></path>
</symbol>
<symbol id="icon-linkedin" viewBox="0 0 32 32">
<path fill="#fffef0" style="fill: var(--color1, #fffef0)" d="M26.269 4h-20.538c-0.956 0-1.731 0.775-1.731 1.731v20.538c0 0.956 0.775 1.731 1.731 1.731h20.538c0.956 0 1.731-0.775 1.731-1.731v-20.538c0-0.956-0.775-1.731-1.731-1.731zM12.513 22.141h-2.922v-8.793h2.922v8.793zM11.052 12.148h-0.019c-0.981 0-1.615-0.675-1.615-1.519 0-0.863 0.654-1.519 1.653-1.519s1.615 0.656 1.634 1.519c0 0.844-0.634 1.519-1.653 1.519zM23.051 22.141h-2.922v-4.704c0-1.182-0.423-1.988-1.48-1.988-0.807 0-1.288 0.544-1.5 1.069-0.077 0.188-0.096 0.45-0.096 0.713v4.91h-2.922c0 0 0.038-7.968 0-8.793h2.922v1.245c0.388-0.599 1.083-1.451 2.634-1.451 1.923 0 3.364 1.257 3.364 3.957v5.042z"></path>
</symbol>
<symbol id="icon-youtube" viewBox="0 0 32 32">
<path fill="#fffef0" style="fill: var(--color1, #fffef0)" d="M24.742 7h-17.135c-3.277 0-4.607 2.488-4.607 5.559v5.88c0 3.071 1.47 5.561 4.747 5.561h16.857c3.275 0 4.397-2.49 4.397-5.561v-5.88c0-3.071-0.981-5.559-4.258-5.559zM13.612 18.834v-6.673l6.816 3.335-6.816 3.338z"></path>
</symbol>
<symbol id="icon-tm" viewBox="0 0 32 32">
<path fill="#004449" style="fill: var(--color1, #004449)" d="M22.536 24.479c0.105-0.132 0.136-0.32 0.049-0.465-1.211-2.020-0.951-5.157 0.202-7.255 0.059-0.108 0.037-0.238-0.028-0.335-0.024-0.035-0.053-0.064-0.089-0.089l-2.172-1.501c-0.019-0.013-0.038-0.024-0.059-0.033h-0.001c-0.143-0.062-0.313-0.018-0.411 0.111-1.477 1.958-3.792 2.861-6.722 2.262-0.045-0.009-0.090-0.007-0.132 0.008-0.051 0.015-0.095 0.046-0.128 0.090l-1.709 2.159c-0.028 0.039-0.046 0.082-0.049 0.128-0.010 0.089 0.028 0.178 0.105 0.235 1.537 1.162 3.817 0.943 4.882 0.271 0 0-1.8 2.824-5.014 2.831-2.664 0.005-4.715-2.057-4.715-4.74 0-1.785 0.625-3.664 2.099-5.074 1.17 1.201 3.172 2.602 5.634 2.71 2.249 0.098 4.342-0.628 4.982-2.426 0.679-1.907-0.052-3.523-1.396-4.562-1.751-1.353-5.532-1.653-8.328-0.547 0 0-0.14-0.494 0.189-1.359 0.053-0.139-0.009-0.297-0.13-0.382l-2.417-1.7c-0.126-0.089-0.294-0.042-0.374 0.089-0.618 1.013-1.263 3.172-0.404 5.212-2.631 2.178-3.876 5.328-3.876 8.3 0 4.571 3.421 8.078 8.559 8.078 3.263 0 6.297-1.761 7.873-4.425 0 0-0.799 2.818 1.416 4.459 0.169 0.125 0.395 0.135 0.525-0.030l1.641-2.019zM15.775 12.014c-0.23 0.92-2.904 0.509-4.095-0.813 1.833-0.832 4.374-0.304 4.095 0.813z"></path>
<path fill="#004449" style="fill: var(--color1, #004449)" d="M25.426 26.473h-0.533v-2.706h-1.038v-0.494h2.605v0.494h-1.034v2.706zM27.533 26.473h-0.533v-3.2h0.656l0.973 2.542 0.967-2.542h0.658v3.2h-0.533v-2.254l-0.861 2.254h-0.466l-0.861-2.249v2.249z"></path>
</symbol>
</defs>
</svg>
